# xmcd
#
# Track frame offsets:
#	150
#	18077
#	41322
#
# Disc length: 761 seconds
#
# Revision: 0
# Processed by: cddbd v1.5.2PL0 Copyright (c) Steve Scherf et al.
# Submitted via: audiograbber 1.83.01
#
DISCID=1302f703
DTITLE=4R - Come Down [CDM)
DYEAR=1996
DGENRE=Dance
TTITLE0=Come Down (Love-Mix)
TTITLE1=Come Down (Making Love On The Dancefloor-Mix)
TTITLE2=Come Down (Album Version)
EXTD=TR.
EXTT0=
EXTT1=
EXTT2=
PLAYORDER=
